<?xml version="1.0" standalone="no"?>
<svg xmlns="http://www.w3.org/2000/svg" xmlns:xlink="http://www.w3.org/1999/xlink" width="527pt" height="787pt" viewBox="0.00 0.00 527.39 786.60">
<g id="graph0" class="graph" transform="translate(-13.945556640625,766.0693664550781) scale(1)" data-name="G">

<polygon fill="white" stroke="none" points="-4,4 -4,-782.6 523.39,-782.6 523.39,4 -4,4" style=""/>
<!-- B -->
<g id="node1" class="node" pointer-events="visible" data-name="B">

<path fill="#f7f7f9" stroke="#000000" d="M507.41,-778.6C507.41,-778.6 412.33,-778.6 412.33,-778.6 406.33,-778.6 400.33,-772.6 400.33,-766.6 400.33,-766.6 400.33,-754.6 400.33,-754.6 400.33,-748.6 406.33,-742.6 412.33,-742.6 412.33,-742.6 507.41,-742.6 507.41,-742.6 513.41,-742.6 519.41,-748.6 519.41,-754.6 519.41,-754.6 519.41,-766.6 519.41,-766.6 519.41,-772.6 513.41,-778.6 507.41,-778.6" style=""/>
<text text-anchor="middle" x="459.87" y="-756.4" font-family="Inter,Arial" font-size="14.00" style="">Campaign Builder</text>
</g>
<!-- E -->
<g id="node2" class="node" pointer-events="visible" data-name="E">

<path fill="#f7f7f9" stroke="#000000" d="M506.07,-705.6C506.07,-705.6 413.67,-705.6 413.67,-705.6 407.67,-705.6 401.67,-699.6 401.67,-693.6 401.67,-693.6 401.67,-681.6 401.67,-681.6 401.67,-675.6 407.67,-669.6 413.67,-669.6 413.67,-669.6 506.07,-669.6 506.07,-669.6 512.07,-669.6 518.07,-675.6 518.07,-681.6 518.07,-681.6 518.07,-693.6 518.07,-693.6 518.07,-699.6 512.07,-705.6 506.07,-705.6" style=""/>
<text text-anchor="middle" x="459.87" y="-683.4" font-family="Inter,Arial" font-size="14.00" style="">Enrollment Agent</text>
</g>
<!-- B&#45;&gt;E -->
<g id="edge1" class="edge" data-name="B-&gt;E">

<path fill="none" stroke="#000000" d="M459.87,-742.41C459.87,-734.83 459.87,-725.7 459.87,-717.14" style=""/>
<polygon fill="#000000" stroke="#000000" points="463.37,-717.14 459.87,-707.14 456.37,-717.14 463.37,-717.14" style=""/>
</g>
<!-- CE -->
<g id="node3" class="node" pointer-events="visible" data-name="CE">

<ellipse fill="#f7f7f9" stroke="#000000" cx="459.87" cy="-614.6" rx="58.48" ry="18" style=""/>
<text text-anchor="middle" x="459.87" y="-610.4" font-family="Inter,Arial" font-size="14.00" style="">Enrollments</text>
</g>
<!-- E&#45;&gt;CE -->
<g id="edge2" class="edge" data-name="E-&gt;CE">

<path fill="none" stroke="#000000" d="M459.87,-669.41C459.87,-661.83 459.87,-652.7 459.87,-644.14" style=""/>
<polygon fill="#000000" stroke="#000000" points="463.37,-644.14 459.87,-634.14 456.37,-644.14 463.37,-644.14" style=""/>
</g>
<!-- G -->
<g id="node5" class="node" pointer-events="visible" data-name="G">

<path fill="#f7f7f9" stroke="#000000" d="M420.59,-543.8C420.59,-543.8 291.15,-543.8 291.15,-543.8 285.15,-543.8 279.15,-537.8 279.15,-531.8 279.15,-531.8 279.15,-519.8 279.15,-519.8 279.15,-513.8 285.15,-507.8 291.15,-507.8 291.15,-507.8 420.59,-507.8 420.59,-507.8 426.59,-507.8 432.59,-513.8 432.59,-519.8 432.59,-519.8 432.59,-531.8 432.59,-531.8 432.59,-537.8 426.59,-543.8 420.59,-543.8" style=""/>
<text text-anchor="middle" x="355.87" y="-521.6" font-family="Inter,Arial" font-size="14.00" style="">LangGraph Orchestrator</text>
</g>
<!-- CE&#45;&gt;G -->
<g id="edge5" class="edge" data-name="CE-&gt;G">

<path fill="none" stroke="#000000" stroke-dasharray="5,2" d="M440.31,-597.27C424.88,-584.39 403.1,-566.22 385.52,-551.55" style=""/>
<polygon fill="#000000" stroke="#000000" points="387.86,-548.93 377.94,-545.21 383.37,-554.31 387.86,-548.93" style=""/>
<text text-anchor="middle" x="444.5" y="-566" font-family="Inter,Arial" font-size="14.00" style="">read state</text>
</g>
<!-- S -->
<g id="node4" class="node" pointer-events="visible" data-name="S">

<path fill="#f7f7f9" stroke="#000000" d="M95.62,-36C95.62,-36 12.13,-36 12.13,-36 6.13,-36 0.13,-30 0.13,-24 0.13,-24 0.13,-12 0.13,-12 0.13,-6 6.13,0 12.13,0 12.13,0 95.62,0 95.62,0 101.62,0 107.62,-6 107.62,-12 107.62,-12 107.62,-24 107.62,-24 107.62,-30 101.62,-36 95.62,-36" style=""/>
<text text-anchor="middle" x="53.87" y="-13.8" font-family="Inter,Arial" font-size="14.00" style="">Scheduler / cron</text>
</g>
<!-- S&#45;&gt;G -->
<g id="edge3" class="edge" data-name="S-&gt;G">

<path fill="none" stroke="#000000" d="M48.9,-36.35C44.2,-54.28 37.87,-83.16 37.87,-108.6 37.87,-451 37.87,-451 37.87,-451 37.87,-498.38 173.53,-515.35 267.63,-521.42" style=""/>
<polygon fill="#000000" stroke="#000000" points="267.19,-524.9 277.38,-522.02 267.61,-517.92 267.19,-524.9" style=""/>
</g>
<!-- D -->
<g id="node6" class="node" pointer-events="visible" data-name="D">

<path fill="#f7f7f9" stroke="#000000" d="M378.1,-470.6C378.1,-470.6 231.64,-470.6 231.64,-470.6 225.64,-470.6 219.64,-464.6 219.64,-458.6 219.64,-458.6 219.64,-441.4 219.64,-441.4 219.64,-435.4 225.64,-429.4 231.64,-429.4 231.64,-429.4 378.1,-429.4 378.1,-429.4 384.1,-429.4 390.1,-435.4 390.1,-441.4 390.1,-441.4 390.1,-458.6 390.1,-458.6 390.1,-464.6 384.1,-470.6 378.1,-470.6" style=""/>
<text text-anchor="middle" x="304.87" y="-454.2" font-family="Inter,Arial" font-size="14.00" style="">Decide next_action</text>
<text text-anchor="middle" x="304.87" y="-437.4" font-family="Inter,Arial" font-size="14.00" style="">(channel • intent • policy)</text>
</g>
<!-- G&#45;&gt;D -->
<g id="edge4" class="edge" data-name="G-&gt;D">

<path fill="none" stroke="#000000" d="M343.79,-507.31C338.19,-499.21 331.39,-489.37 325.05,-480.19" style=""/>
<polygon fill="#000000" stroke="#000000" points="328.1,-478.45 319.53,-472.22 322.34,-482.43 328.1,-478.45" style=""/>
</g>
<!-- A -->
<g id="node7" class="node" pointer-events="visible" data-name="A">

<path fill="#f7f7f9" stroke="#000000" d="M197.4,-376.2C197.4,-376.2 78.35,-376.2 78.35,-376.2 72.35,-376.2 66.35,-370.2 66.35,-364.2 66.35,-364.2 66.35,-347 66.35,-347 66.35,-341 72.35,-335 78.35,-335 78.35,-335 197.4,-335 197.4,-335 203.4,-335 209.4,-341 209.4,-347 209.4,-347 209.4,-364.2 209.4,-364.2 209.4,-370.2 203.4,-376.2 197.4,-376.2" style=""/>
<text text-anchor="middle" x="137.87" y="-359.8" font-family="Inter,Arial" font-size="14.00" style="">Execute action</text>
<text text-anchor="middle" x="137.87" y="-343" font-family="Inter,Arial" font-size="14.00" style="">(voice • sms • email)</text>
</g>
<!-- D&#45;&gt;A -->
<g id="edge6" class="edge" data-name="D-&gt;A">

<path fill="none" stroke="#000000" d="M268.64,-428.95C243.8,-415.21 210.64,-396.86 183.93,-382.08" style=""/>
<polygon fill="#000000" stroke="#000000" points="185.81,-379.12 175.36,-377.34 182.42,-385.25 185.81,-379.12" style=""/>
<text text-anchor="middle" x="256.7" y="-398.6" font-family="Inter,Arial" font-size="14.00" style="">send_*</text>
</g>
<!-- ESC -->
<g id="node11" class="node" pointer-events="visible" data-name="ESC">

<path fill="#f7f7f9" stroke="#000000" d="M378.33,-373.6C378.33,-373.6 239.41,-373.6 239.41,-373.6 233.41,-373.6 227.41,-367.6 227.41,-361.6 227.41,-361.6 227.41,-349.6 227.41,-349.6 227.41,-343.6 233.41,-337.6 239.41,-337.6 239.41,-337.6 378.33,-337.6 378.33,-337.6 384.33,-337.6 390.33,-343.6 390.33,-349.6 390.33,-349.6 390.33,-361.6 390.33,-361.6 390.33,-367.6 384.33,-373.6 378.33,-373.6" style=""/>
<text text-anchor="middle" x="308.87" y="-351.4" font-family="Inter,Arial" font-size="14.00" style="">Human handoff (optional)</text>
</g>
<!-- D&#45;&gt;ESC -->
<g id="edge7" class="edge" data-name="D-&gt;ESC">

<path fill="none" stroke="#000000" d="M305.74,-428.95C306.3,-416.1 307.03,-399.21 307.64,-384.99" style=""/>
<polygon fill="#000000" stroke="#000000" points="311.13,-385.47 308.06,-375.33 304.13,-385.17 311.13,-385.47" style=""/>
<text text-anchor="middle" x="330.02" y="-398.6" font-family="Inter,Arial" font-size="14.00" style="">escalate</text>
</g>
<!-- H -->
<g id="node8" class="node" pointer-events="visible" data-name="H">

<polygon fill="#f7f7f9" stroke="#000000" points="224.36,-282 221.36,-286 200.36,-286 197.36,-282 99.39,-282 99.39,-246 224.36,-246 224.36,-282" style=""/>
<text text-anchor="middle" x="161.87" y="-259.8" font-family="Inter,Arial" font-size="14.00" style="">Provider webhooks</text>
</g>
<!-- A&#45;&gt;H -->
<g id="edge8" class="edge" data-name="A-&gt;H">

<path fill="none" stroke="#000000" d="M143.2,-334.71C146.45,-322.59 150.65,-306.9 154.24,-293.48" style=""/>
<polygon fill="#000000" stroke="#000000" points="157.61,-294.44 156.82,-283.87 150.85,-292.62 157.61,-294.44" style=""/>
</g>
<!-- U -->
<g id="node9" class="node" pointer-events="visible" data-name="U">

<path fill="#f7f7f9" stroke="#000000" d="M330.61,-208.8C330.61,-208.8 229.13,-208.8 229.13,-208.8 223.13,-208.8 217.13,-202.8 217.13,-196.8 217.13,-196.8 217.13,-179.6 217.13,-179.6 217.13,-173.6 223.13,-167.6 229.13,-167.6 229.13,-167.6 330.61,-167.6 330.61,-167.6 336.61,-167.6 342.61,-173.6 342.61,-179.6 342.61,-179.6 342.61,-196.8 342.61,-196.8 342.61,-202.8 336.61,-208.8 330.61,-208.8" style=""/>
<text text-anchor="middle" x="279.87" y="-192.4" font-family="Inter,Arial" font-size="14.00" style="">Update interactions</text>
<text text-anchor="middle" x="279.87" y="-175.6" font-family="Inter,Arial" font-size="14.00" style="">(outcome)</text>
</g>
<!-- H&#45;&gt;U -->
<g id="edge9" class="edge" data-name="H-&gt;U">

<path fill="none" stroke="#000000" d="M189.84,-245.51C204.29,-236.47 222.21,-225.27 238.24,-215.24" style=""/>
<polygon fill="#000000" stroke="#000000" points="240.03,-218.24 246.66,-209.97 236.32,-212.31 240.03,-218.24" style=""/>
</g>
<!-- P -->
<g id="node10" class="node" pointer-events="visible" data-name="P">

<path fill="#f7f7f9" stroke="#000000" d="M435.25,-130.2C435.25,-130.2 318.5,-130.2 318.5,-130.2 312.5,-130.2 306.5,-124.2 306.5,-118.2 306.5,-118.2 306.5,-101 306.5,-101 306.5,-95 312.5,-89 318.5,-89 318.5,-89 435.25,-89 435.25,-89 441.25,-89 447.25,-95 447.25,-101 447.25,-101 447.25,-118.2 447.25,-118.2 447.25,-124.2 441.25,-130.2 435.25,-130.2" style=""/>
<text text-anchor="middle" x="376.87" y="-113.8" font-family="Inter,Arial" font-size="14.00" style="">Progress campaign</text>
<text text-anchor="middle" x="376.87" y="-97" font-family="Inter,Arial" font-size="14.00" style="">advance or reschedule</text>
</g>
<!-- U&#45;&gt;P -->
<g id="edge10" class="edge" data-name="U-&gt;P">

<path fill="none" stroke="#000000" d="M305.1,-167.27C316.58,-158.21 330.33,-147.36 342.71,-137.58" style=""/>
<polygon fill="#000000" stroke="#000000" points="344.56,-140.57 350.24,-131.63 340.22,-135.08 344.56,-140.57" style=""/>
</g>
<!-- P&#45;&gt;CE -->
<g id="edge13" class="edge" data-name="P-&gt;CE">

<path fill="none" stroke="#000000" d="M447.54,-124.04C480.2,-134.77 511.87,-153.79 511.87,-187.2 511.87,-526.8 511.87,-526.8 511.87,-526.8 511.87,-550.07 497.95,-572.5 484.51,-588.73" style=""/>
<polygon fill="#000000" stroke="#000000" points="482.15,-586.11 478.19,-595.93 487.41,-590.73 482.15,-586.11" style=""/>
</g>
<!-- P&#45;&gt;S -->
<g id="edge12" class="edge" data-name="P-&gt;S">

<path fill="none" stroke="#000000" d="M306.39,-89.05C250.56,-73.56 173.18,-52.1 118.84,-37.02" style=""/>
<polygon fill="#000000" stroke="#000000" points="119.98,-33.71 109.4,-34.4 118.11,-40.45 119.98,-33.71" style=""/>
<text text-anchor="middle" x="284.44" y="-58.2" font-family="Inter,Arial" font-size="14.00" style="">write next_run_at</text>
</g>
<!-- P&#45;&gt;G -->
<g id="edge11" class="edge" data-name="P-&gt;G">

<path fill="none" stroke="#000000" d="M394.5,-130.52C405.61,-145.15 417.87,-166.08 417.87,-187.2 417.87,-451 417.87,-451 417.87,-451 417.87,-470.4 405.16,-487.37 391.24,-500.12" style=""/>
<polygon fill="#000000" stroke="#000000" points="389.05,-497.39 383.68,-506.53 393.57,-502.73 389.05,-497.39" style=""/>
<text text-anchor="middle" x="457.52" y="-304.2" font-family="Inter,Arial" font-size="14.00" style="">success / retry</text>
</g>
</g>
</svg>